# xmcd
#
# Track frame offsets:
#	150
#	12186
#	24271
#	35813
#	48790
#	69409
#	78945
#	91382
#	105717
#	122271
#	135579
#	146713
#	165747
#	179055
#
# Disc length: 2540 seconds
#
# Revision: 1
# Processed by: cddbd v1.5.1PL0 Copyright (c) Steve Scherf et al.
# Submitted via: audiograbber 1.83.01
#
DISCID=b209ea0e
DTITLE=Creedence Clearwater Revival - ?
DYEAR=1900
DGENRE=
TTITLE0=Hey Tonight
TTITLE1=Have you ever seen the rain
TTITLE2=Green river
TTITLE3=Sweet Hitch Hiker
TTITLE4=Suzie Q
TTITLE5=Molina
TTITLE6=Down on the corner
TTITLE7=Lodi
TTITLE8=Tombsbue shadow
TTITLE9=Cottonfields
TTITLE10=Who'll stop the rain
TTITLE11=The midnight special
TTITLE12=It came out of the sky
TTITLE13=Lookin out my back door
EXTD=
EXTT0=
EXTT1=
EXTT2=
EXTT3=
EXTT4=
EXTT5=
EXTT6=
EXTT7=
EXTT8=
EXTT9=
EXTT10=
EXTT11=
EXTT12=
EXTT13=
PLAYORDER=
